<mxfile host="app.diagrams.net" modified="2024-05-24T07:28:52.821Z" agent="Mozilla/5.0 (Macintosh; Intel Mac OS X 10_15_7) AppleWebKit/537.36 (KHTML, like Gecko) Chrome/125.0.0.0 Safari/537.36" etag="7ckdOQy-7Ut-dIjFS61a" version="24.4.7" type="github">
  <diagram id="C5RBs43oDa-KdzZeNtuy" name="Page-1">
    <mxGraphModel dx="1434" dy="761" grid="1" gridSize="10" guides="1" tooltips="1" connect="1" arrows="1" fold="1" page="1" pageScale="1" pageWidth="827" pageHeight="1169" math="0" shadow="0">
      <root>
        <mxCell id="WIyWlLk6GJQsqaUBKTNV-0" />
        <mxCell id="WIyWlLk6GJQsqaUBKTNV-1" parent="WIyWlLk6GJQsqaUBKTNV-0" />
        <mxCell id="xho7sPnH5Ay0xjF2sGZU-0" value="&lt;div&gt;前提：&lt;/div&gt;&lt;div&gt;&lt;br&gt;&lt;/div&gt;1. Mongo中手动整理，建立问题与【库名、表名、指标字段、条件字段】的多对一的关系&lt;div&gt;&lt;br&gt;&lt;div&gt;2. 将问题与问题id写入Chroma&lt;/div&gt;&lt;/div&gt;" style="shape=datastore;whiteSpace=wrap;html=1;align=left;verticalAlign=top;" vertex="1" parent="WIyWlLk6GJQsqaUBKTNV-1">
          <mxGeometry x="20" y="20" width="180" height="190" as="geometry" />
        </mxCell>
        <mxCell id="xho7sPnH5Ay0xjF2sGZU-3" value="" style="edgeStyle=orthogonalEdgeStyle;rounded=0;orthogonalLoop=1;jettySize=auto;html=1;" edge="1" parent="WIyWlLk6GJQsqaUBKTNV-1" source="xho7sPnH5Ay0xjF2sGZU-1" target="xho7sPnH5Ay0xjF2sGZU-2">
          <mxGeometry relative="1" as="geometry" />
        </mxCell>
        <mxCell id="xho7sPnH5Ay0xjF2sGZU-1" value="用户提问" style="strokeWidth=2;html=1;shape=mxgraph.flowchart.start_1;whiteSpace=wrap;" vertex="1" parent="WIyWlLk6GJQsqaUBKTNV-1">
          <mxGeometry x="340" y="30" width="100" height="60" as="geometry" />
        </mxCell>
        <mxCell id="xho7sPnH5Ay0xjF2sGZU-7" value="" style="edgeStyle=orthogonalEdgeStyle;rounded=0;orthogonalLoop=1;jettySize=auto;html=1;" edge="1" parent="WIyWlLk6GJQsqaUBKTNV-1" source="xho7sPnH5Ay0xjF2sGZU-2" target="xho7sPnH5Ay0xjF2sGZU-6">
          <mxGeometry relative="1" as="geometry" />
        </mxCell>
        <mxCell id="xho7sPnH5Ay0xjF2sGZU-2" value="Chroma中搜索&lt;div&gt;相关问题&lt;/div&gt;" style="rounded=1;whiteSpace=wrap;html=1;strokeWidth=2;" vertex="1" parent="WIyWlLk6GJQsqaUBKTNV-1">
          <mxGeometry x="330" y="140" width="120" height="60" as="geometry" />
        </mxCell>
        <mxCell id="xho7sPnH5Ay0xjF2sGZU-10" value="" style="edgeStyle=orthogonalEdgeStyle;rounded=0;orthogonalLoop=1;jettySize=auto;html=1;" edge="1" parent="WIyWlLk6GJQsqaUBKTNV-1" source="xho7sPnH5Ay0xjF2sGZU-4" target="xho7sPnH5Ay0xjF2sGZU-9">
          <mxGeometry relative="1" as="geometry" />
        </mxCell>
        <mxCell id="xho7sPnH5Ay0xjF2sGZU-11" value="Yes" style="edgeLabel;html=1;align=center;verticalAlign=middle;resizable=0;points=[];" vertex="1" connectable="0" parent="xho7sPnH5Ay0xjF2sGZU-10">
          <mxGeometry x="-0.1" y="-2" relative="1" as="geometry">
            <mxPoint as="offset" />
          </mxGeometry>
        </mxCell>
        <mxCell id="xho7sPnH5Ay0xjF2sGZU-28" value="" style="edgeStyle=orthogonalEdgeStyle;rounded=0;orthogonalLoop=1;jettySize=auto;html=1;" edge="1" parent="WIyWlLk6GJQsqaUBKTNV-1" source="xho7sPnH5Ay0xjF2sGZU-4" target="xho7sPnH5Ay0xjF2sGZU-27">
          <mxGeometry relative="1" as="geometry" />
        </mxCell>
        <mxCell id="xho7sPnH5Ay0xjF2sGZU-29" value="No" style="edgeLabel;html=1;align=center;verticalAlign=middle;resizable=0;points=[];" vertex="1" connectable="0" parent="xho7sPnH5Ay0xjF2sGZU-28">
          <mxGeometry x="-0.225" relative="1" as="geometry">
            <mxPoint as="offset" />
          </mxGeometry>
        </mxCell>
        <mxCell id="xho7sPnH5Ay0xjF2sGZU-4" value="是否相关" style="rhombus;whiteSpace=wrap;html=1;rounded=1;strokeWidth=2;" vertex="1" parent="WIyWlLk6GJQsqaUBKTNV-1">
          <mxGeometry x="350" y="340" width="80" height="80" as="geometry" />
        </mxCell>
        <mxCell id="xho7sPnH5Ay0xjF2sGZU-8" style="edgeStyle=orthogonalEdgeStyle;rounded=0;orthogonalLoop=1;jettySize=auto;html=1;exitX=0.5;exitY=1;exitDx=0;exitDy=0;" edge="1" parent="WIyWlLk6GJQsqaUBKTNV-1" source="xho7sPnH5Ay0xjF2sGZU-6" target="xho7sPnH5Ay0xjF2sGZU-4">
          <mxGeometry relative="1" as="geometry" />
        </mxCell>
        <mxCell id="xho7sPnH5Ay0xjF2sGZU-6" value="llm判断搜索结果是否与用户提问相关" style="whiteSpace=wrap;html=1;rounded=1;strokeWidth=2;" vertex="1" parent="WIyWlLk6GJQsqaUBKTNV-1">
          <mxGeometry x="330" y="240" width="120" height="60" as="geometry" />
        </mxCell>
        <mxCell id="xho7sPnH5Ay0xjF2sGZU-13" value="" style="edgeStyle=orthogonalEdgeStyle;rounded=0;orthogonalLoop=1;jettySize=auto;html=1;" edge="1" parent="WIyWlLk6GJQsqaUBKTNV-1" source="xho7sPnH5Ay0xjF2sGZU-9" target="xho7sPnH5Ay0xjF2sGZU-12">
          <mxGeometry relative="1" as="geometry" />
        </mxCell>
        <mxCell id="xho7sPnH5Ay0xjF2sGZU-9" value="通过相关问题的问题id，在Mongo中查找库名、表名、指标字段、条件字段" style="whiteSpace=wrap;html=1;rounded=1;strokeWidth=2;" vertex="1" parent="WIyWlLk6GJQsqaUBKTNV-1">
          <mxGeometry x="315" y="480" width="150" height="80" as="geometry" />
        </mxCell>
        <mxCell id="xho7sPnH5Ay0xjF2sGZU-15" value="" style="edgeStyle=orthogonalEdgeStyle;rounded=0;orthogonalLoop=1;jettySize=auto;html=1;" edge="1" parent="WIyWlLk6GJQsqaUBKTNV-1" source="xho7sPnH5Ay0xjF2sGZU-12" target="xho7sPnH5Ay0xjF2sGZU-14">
          <mxGeometry relative="1" as="geometry" />
        </mxCell>
        <mxCell id="xho7sPnH5Ay0xjF2sGZU-12" value="将以上信息和问题都交给llm，生成查询SQL" style="whiteSpace=wrap;html=1;rounded=1;strokeWidth=2;" vertex="1" parent="WIyWlLk6GJQsqaUBKTNV-1">
          <mxGeometry x="330" y="620" width="120" height="60" as="geometry" />
        </mxCell>
        <mxCell id="xho7sPnH5Ay0xjF2sGZU-17" value="" style="edgeStyle=orthogonalEdgeStyle;rounded=0;orthogonalLoop=1;jettySize=auto;html=1;" edge="1" parent="WIyWlLk6GJQsqaUBKTNV-1" source="xho7sPnH5Ay0xjF2sGZU-14" target="xho7sPnH5Ay0xjF2sGZU-16">
          <mxGeometry relative="1" as="geometry" />
        </mxCell>
        <mxCell id="xho7sPnH5Ay0xjF2sGZU-14" value="SQL执行器执行SQL,&lt;div&gt;获取二维数据&lt;/div&gt;" style="whiteSpace=wrap;html=1;rounded=1;strokeWidth=2;" vertex="1" parent="WIyWlLk6GJQsqaUBKTNV-1">
          <mxGeometry x="330" y="730" width="120" height="60" as="geometry" />
        </mxCell>
        <mxCell id="xho7sPnH5Ay0xjF2sGZU-19" value="" style="edgeStyle=orthogonalEdgeStyle;rounded=0;orthogonalLoop=1;jettySize=auto;html=1;" edge="1" parent="WIyWlLk6GJQsqaUBKTNV-1" source="xho7sPnH5Ay0xjF2sGZU-16" target="xho7sPnH5Ay0xjF2sGZU-18">
          <mxGeometry relative="1" as="geometry" />
        </mxCell>
        <mxCell id="xho7sPnH5Ay0xjF2sGZU-20" value="Yes" style="edgeLabel;html=1;align=center;verticalAlign=middle;resizable=0;points=[];" vertex="1" connectable="0" parent="xho7sPnH5Ay0xjF2sGZU-19">
          <mxGeometry x="-0.0889" y="-2" relative="1" as="geometry">
            <mxPoint as="offset" />
          </mxGeometry>
        </mxCell>
        <mxCell id="xho7sPnH5Ay0xjF2sGZU-52" style="edgeStyle=orthogonalEdgeStyle;rounded=0;orthogonalLoop=1;jettySize=auto;html=1;exitX=0;exitY=0.5;exitDx=0;exitDy=0;entryX=1;entryY=0.5;entryDx=0;entryDy=0;" edge="1" parent="WIyWlLk6GJQsqaUBKTNV-1" source="xho7sPnH5Ay0xjF2sGZU-16" target="xho7sPnH5Ay0xjF2sGZU-47">
          <mxGeometry relative="1" as="geometry" />
        </mxCell>
        <mxCell id="xho7sPnH5Ay0xjF2sGZU-53" value="No" style="edgeLabel;html=1;align=center;verticalAlign=middle;resizable=0;points=[];" vertex="1" connectable="0" parent="xho7sPnH5Ay0xjF2sGZU-52">
          <mxGeometry x="-0.1875" y="-2" relative="1" as="geometry">
            <mxPoint as="offset" />
          </mxGeometry>
        </mxCell>
        <mxCell id="xho7sPnH5Ay0xjF2sGZU-16" value="是否成功" style="rhombus;whiteSpace=wrap;html=1;rounded=1;strokeWidth=2;" vertex="1" parent="WIyWlLk6GJQsqaUBKTNV-1">
          <mxGeometry x="350" y="840" width="80" height="80" as="geometry" />
        </mxCell>
        <mxCell id="xho7sPnH5Ay0xjF2sGZU-40" style="edgeStyle=orthogonalEdgeStyle;rounded=0;orthogonalLoop=1;jettySize=auto;html=1;exitX=0.5;exitY=1;exitDx=0;exitDy=0;entryX=0.5;entryY=0;entryDx=0;entryDy=0;" edge="1" parent="WIyWlLk6GJQsqaUBKTNV-1" source="xho7sPnH5Ay0xjF2sGZU-18" target="xho7sPnH5Ay0xjF2sGZU-39">
          <mxGeometry relative="1" as="geometry" />
        </mxCell>
        <mxCell id="xho7sPnH5Ay0xjF2sGZU-18" value="llm生成绘制报表需要的参数，生成数据报表" style="whiteSpace=wrap;html=1;rounded=1;strokeWidth=2;" vertex="1" parent="WIyWlLk6GJQsqaUBKTNV-1">
          <mxGeometry x="330" y="980" width="120" height="60" as="geometry" />
        </mxCell>
        <mxCell id="xho7sPnH5Ay0xjF2sGZU-21" value="llm根据返回数据，&lt;div&gt;总结结论&lt;/div&gt;" style="whiteSpace=wrap;html=1;rounded=1;strokeWidth=2;" vertex="1" parent="WIyWlLk6GJQsqaUBKTNV-1">
          <mxGeometry x="330" y="1280" width="120" height="60" as="geometry" />
        </mxCell>
        <mxCell id="xho7sPnH5Ay0xjF2sGZU-25" value="结束" style="strokeWidth=2;html=1;shape=mxgraph.flowchart.terminator;whiteSpace=wrap;" vertex="1" parent="WIyWlLk6GJQsqaUBKTNV-1">
          <mxGeometry x="340" y="1390" width="100" height="60" as="geometry" />
        </mxCell>
        <mxCell id="xho7sPnH5Ay0xjF2sGZU-26" style="edgeStyle=orthogonalEdgeStyle;rounded=0;orthogonalLoop=1;jettySize=auto;html=1;exitX=0.5;exitY=1;exitDx=0;exitDy=0;entryX=0.5;entryY=0;entryDx=0;entryDy=0;entryPerimeter=0;" edge="1" parent="WIyWlLk6GJQsqaUBKTNV-1" source="xho7sPnH5Ay0xjF2sGZU-21" target="xho7sPnH5Ay0xjF2sGZU-25">
          <mxGeometry relative="1" as="geometry" />
        </mxCell>
        <mxCell id="xho7sPnH5Ay0xjF2sGZU-30" style="edgeStyle=orthogonalEdgeStyle;rounded=0;orthogonalLoop=1;jettySize=auto;html=1;exitX=0;exitY=0.5;exitDx=0;exitDy=0;entryX=1;entryY=0.5;entryDx=0;entryDy=0;" edge="1" parent="WIyWlLk6GJQsqaUBKTNV-1" source="xho7sPnH5Ay0xjF2sGZU-27" target="xho7sPnH5Ay0xjF2sGZU-2">
          <mxGeometry relative="1" as="geometry">
            <Array as="points">
              <mxPoint x="740" y="170" />
            </Array>
          </mxGeometry>
        </mxCell>
        <mxCell id="xho7sPnH5Ay0xjF2sGZU-31" value="No" style="edgeLabel;html=1;align=center;verticalAlign=middle;resizable=0;points=[];" vertex="1" connectable="0" parent="xho7sPnH5Ay0xjF2sGZU-30">
          <mxGeometry x="-0.8618" y="-3" relative="1" as="geometry">
            <mxPoint y="-3" as="offset" />
          </mxGeometry>
        </mxCell>
        <mxCell id="xho7sPnH5Ay0xjF2sGZU-33" value="" style="edgeStyle=orthogonalEdgeStyle;rounded=0;orthogonalLoop=1;jettySize=auto;html=1;" edge="1" parent="WIyWlLk6GJQsqaUBKTNV-1" source="xho7sPnH5Ay0xjF2sGZU-27" target="xho7sPnH5Ay0xjF2sGZU-32">
          <mxGeometry relative="1" as="geometry" />
        </mxCell>
        <mxCell id="xho7sPnH5Ay0xjF2sGZU-48" value="Yes" style="edgeLabel;html=1;align=center;verticalAlign=middle;resizable=0;points=[];" vertex="1" connectable="0" parent="xho7sPnH5Ay0xjF2sGZU-33">
          <mxGeometry x="-0.9088" relative="1" as="geometry">
            <mxPoint y="23" as="offset" />
          </mxGeometry>
        </mxCell>
        <mxCell id="xho7sPnH5Ay0xjF2sGZU-27" value="是否达&lt;div&gt;最大重试次数&lt;/div&gt;" style="rhombus;whiteSpace=wrap;html=1;rounded=1;strokeWidth=2;direction=south;" vertex="1" parent="WIyWlLk6GJQsqaUBKTNV-1">
          <mxGeometry x="690" y="330" width="100" height="100" as="geometry" />
        </mxCell>
        <mxCell id="xho7sPnH5Ay0xjF2sGZU-32" value="提示错误信息" style="whiteSpace=wrap;html=1;rounded=1;strokeWidth=2;" vertex="1" parent="WIyWlLk6GJQsqaUBKTNV-1">
          <mxGeometry x="680" y="1240" width="120" height="60" as="geometry" />
        </mxCell>
        <mxCell id="xho7sPnH5Ay0xjF2sGZU-34" style="edgeStyle=orthogonalEdgeStyle;rounded=0;orthogonalLoop=1;jettySize=auto;html=1;exitX=0.5;exitY=1;exitDx=0;exitDy=0;entryX=1;entryY=0.5;entryDx=0;entryDy=0;entryPerimeter=0;" edge="1" parent="WIyWlLk6GJQsqaUBKTNV-1" source="xho7sPnH5Ay0xjF2sGZU-32" target="xho7sPnH5Ay0xjF2sGZU-25">
          <mxGeometry relative="1" as="geometry" />
        </mxCell>
        <mxCell id="xho7sPnH5Ay0xjF2sGZU-38" style="edgeStyle=orthogonalEdgeStyle;rounded=0;orthogonalLoop=1;jettySize=auto;html=1;exitX=0.5;exitY=0;exitDx=0;exitDy=0;entryX=0;entryY=0.5;entryDx=0;entryDy=0;" edge="1" parent="WIyWlLk6GJQsqaUBKTNV-1" source="xho7sPnH5Ay0xjF2sGZU-35" target="xho7sPnH5Ay0xjF2sGZU-12">
          <mxGeometry relative="1" as="geometry" />
        </mxCell>
        <mxCell id="xho7sPnH5Ay0xjF2sGZU-35" value="收集报错信息，交给llm纠错" style="whiteSpace=wrap;html=1;rounded=1;strokeWidth=2;" vertex="1" parent="WIyWlLk6GJQsqaUBKTNV-1">
          <mxGeometry x="20" y="730" width="120" height="60" as="geometry" />
        </mxCell>
        <mxCell id="xho7sPnH5Ay0xjF2sGZU-41" style="edgeStyle=orthogonalEdgeStyle;rounded=0;orthogonalLoop=1;jettySize=auto;html=1;exitX=0.5;exitY=1;exitDx=0;exitDy=0;entryX=0.5;entryY=0;entryDx=0;entryDy=0;" edge="1" parent="WIyWlLk6GJQsqaUBKTNV-1" source="xho7sPnH5Ay0xjF2sGZU-39" target="xho7sPnH5Ay0xjF2sGZU-21">
          <mxGeometry relative="1" as="geometry" />
        </mxCell>
        <mxCell id="xho7sPnH5Ay0xjF2sGZU-42" value="Yes" style="edgeLabel;html=1;align=center;verticalAlign=middle;resizable=0;points=[];" vertex="1" connectable="0" parent="xho7sPnH5Ay0xjF2sGZU-41">
          <mxGeometry x="-0.1333" y="-1" relative="1" as="geometry">
            <mxPoint as="offset" />
          </mxGeometry>
        </mxCell>
        <mxCell id="xho7sPnH5Ay0xjF2sGZU-59" style="edgeStyle=orthogonalEdgeStyle;rounded=0;orthogonalLoop=1;jettySize=auto;html=1;exitX=0;exitY=0.5;exitDx=0;exitDy=0;entryX=1;entryY=0.5;entryDx=0;entryDy=0;" edge="1" parent="WIyWlLk6GJQsqaUBKTNV-1" source="xho7sPnH5Ay0xjF2sGZU-39" target="xho7sPnH5Ay0xjF2sGZU-58">
          <mxGeometry relative="1" as="geometry" />
        </mxCell>
        <mxCell id="xho7sPnH5Ay0xjF2sGZU-62" value="No" style="edgeLabel;html=1;align=center;verticalAlign=middle;resizable=0;points=[];" vertex="1" connectable="0" parent="xho7sPnH5Ay0xjF2sGZU-59">
          <mxGeometry x="-0.125" y="-1" relative="1" as="geometry">
            <mxPoint as="offset" />
          </mxGeometry>
        </mxCell>
        <mxCell id="xho7sPnH5Ay0xjF2sGZU-39" value="是否成功" style="rhombus;whiteSpace=wrap;html=1;rounded=1;strokeWidth=2;" vertex="1" parent="WIyWlLk6GJQsqaUBKTNV-1">
          <mxGeometry x="350" y="1100" width="80" height="80" as="geometry" />
        </mxCell>
        <mxCell id="xho7sPnH5Ay0xjF2sGZU-46" style="edgeStyle=orthogonalEdgeStyle;rounded=0;orthogonalLoop=1;jettySize=auto;html=1;exitX=0.5;exitY=0;exitDx=0;exitDy=0;entryX=0;entryY=0.5;entryDx=0;entryDy=0;" edge="1" parent="WIyWlLk6GJQsqaUBKTNV-1" source="xho7sPnH5Ay0xjF2sGZU-43" target="xho7sPnH5Ay0xjF2sGZU-18">
          <mxGeometry relative="1" as="geometry" />
        </mxCell>
        <mxCell id="xho7sPnH5Ay0xjF2sGZU-43" value="收集报错信息，交给llm纠错" style="whiteSpace=wrap;html=1;rounded=1;strokeWidth=2;" vertex="1" parent="WIyWlLk6GJQsqaUBKTNV-1">
          <mxGeometry x="20" y="1040" width="120" height="60" as="geometry" />
        </mxCell>
        <mxCell id="xho7sPnH5Ay0xjF2sGZU-54" style="edgeStyle=orthogonalEdgeStyle;rounded=0;orthogonalLoop=1;jettySize=auto;html=1;exitX=0;exitY=0.5;exitDx=0;exitDy=0;entryX=0.5;entryY=1;entryDx=0;entryDy=0;" edge="1" parent="WIyWlLk6GJQsqaUBKTNV-1" source="xho7sPnH5Ay0xjF2sGZU-47" target="xho7sPnH5Ay0xjF2sGZU-35">
          <mxGeometry relative="1" as="geometry" />
        </mxCell>
        <mxCell id="xho7sPnH5Ay0xjF2sGZU-55" value="No" style="edgeLabel;html=1;align=center;verticalAlign=middle;resizable=0;points=[];" vertex="1" connectable="0" parent="xho7sPnH5Ay0xjF2sGZU-54">
          <mxGeometry x="-0.584" y="4" relative="1" as="geometry">
            <mxPoint x="12" y="-4" as="offset" />
          </mxGeometry>
        </mxCell>
        <mxCell id="xho7sPnH5Ay0xjF2sGZU-56" style="edgeStyle=orthogonalEdgeStyle;rounded=0;orthogonalLoop=1;jettySize=auto;html=1;exitX=0.5;exitY=1;exitDx=0;exitDy=0;entryX=0.5;entryY=0;entryDx=0;entryDy=0;" edge="1" parent="WIyWlLk6GJQsqaUBKTNV-1" source="xho7sPnH5Ay0xjF2sGZU-47" target="xho7sPnH5Ay0xjF2sGZU-32">
          <mxGeometry relative="1" as="geometry">
            <Array as="points">
              <mxPoint x="740" y="930" />
            </Array>
          </mxGeometry>
        </mxCell>
        <mxCell id="xho7sPnH5Ay0xjF2sGZU-57" value="Yes" style="edgeLabel;html=1;align=center;verticalAlign=middle;resizable=0;points=[];" vertex="1" connectable="0" parent="xho7sPnH5Ay0xjF2sGZU-56">
          <mxGeometry x="-0.8101" relative="1" as="geometry">
            <mxPoint as="offset" />
          </mxGeometry>
        </mxCell>
        <mxCell id="xho7sPnH5Ay0xjF2sGZU-47" value="是否达&lt;div&gt;最大重试次数&lt;/div&gt;" style="rhombus;whiteSpace=wrap;html=1;rounded=1;strokeWidth=2;" vertex="1" parent="WIyWlLk6GJQsqaUBKTNV-1">
          <mxGeometry x="170" y="830" width="110" height="100" as="geometry" />
        </mxCell>
        <mxCell id="xho7sPnH5Ay0xjF2sGZU-60" style="edgeStyle=orthogonalEdgeStyle;rounded=0;orthogonalLoop=1;jettySize=auto;html=1;exitX=0;exitY=0.5;exitDx=0;exitDy=0;entryX=0.5;entryY=1;entryDx=0;entryDy=0;" edge="1" parent="WIyWlLk6GJQsqaUBKTNV-1" source="xho7sPnH5Ay0xjF2sGZU-58" target="xho7sPnH5Ay0xjF2sGZU-43">
          <mxGeometry relative="1" as="geometry" />
        </mxCell>
        <mxCell id="xho7sPnH5Ay0xjF2sGZU-61" value="No" style="edgeLabel;html=1;align=center;verticalAlign=middle;resizable=0;points=[];" vertex="1" connectable="0" parent="xho7sPnH5Ay0xjF2sGZU-60">
          <mxGeometry x="-0.4" y="-1" relative="1" as="geometry">
            <mxPoint as="offset" />
          </mxGeometry>
        </mxCell>
        <mxCell id="xho7sPnH5Ay0xjF2sGZU-58" value="是否达&lt;div&gt;最大重试次数&lt;/div&gt;" style="rhombus;whiteSpace=wrap;html=1;rounded=1;strokeWidth=2;" vertex="1" parent="WIyWlLk6GJQsqaUBKTNV-1">
          <mxGeometry x="160" y="1090" width="110" height="100" as="geometry" />
        </mxCell>
        <mxCell id="xho7sPnH5Ay0xjF2sGZU-65" style="edgeStyle=orthogonalEdgeStyle;rounded=0;orthogonalLoop=1;jettySize=auto;html=1;exitX=0.5;exitY=1;exitDx=0;exitDy=0;entryX=0;entryY=0.617;entryDx=0;entryDy=0;entryPerimeter=0;" edge="1" parent="WIyWlLk6GJQsqaUBKTNV-1" source="xho7sPnH5Ay0xjF2sGZU-58" target="xho7sPnH5Ay0xjF2sGZU-21">
          <mxGeometry relative="1" as="geometry" />
        </mxCell>
        <mxCell id="xho7sPnH5Ay0xjF2sGZU-66" value="Yes" style="edgeLabel;html=1;align=center;verticalAlign=middle;resizable=0;points=[];" vertex="1" connectable="0" parent="xho7sPnH5Ay0xjF2sGZU-65">
          <mxGeometry x="-0.686" y="-1" relative="1" as="geometry">
            <mxPoint as="offset" />
          </mxGeometry>
        </mxCell>
      </root>
    </mxGraphModel>
  </diagram>
</mxfile>
